<svg xmlns="http://www.w3.org/2000/svg" version="1.1" xmlns:xlink="http://www.w3.org/1999/xlink" xmlns:svgjs="http://svgjs.dev/svgjs" width="1000" height="348" viewBox="0 0 1000 348"><g transform="matrix(1,0,0,1,-0.6060539613417859,0.13049469133051161)"><svg viewBox="0 0 396 138" data-background-color="#282634" preserveAspectRatio="xMidYMid meet" height="348" width="1000" xmlns="http://www.w3.org/2000/svg" xmlns:xlink="http://www.w3.org/1999/xlink"><g id="tight-bounds" transform="matrix(1,0,0,1,0.23999738160682682,-0.051742773836849665)"><svg viewBox="0 0 395.52 138.10349066867477" height="138.10349066867477" width="395.52"><g><svg viewBox="0 0 665.4488166664462 232.35438016528929" height="138.10349066867477" width="395.52"><g transform="matrix(1,0,0,1,269.92881666644627,0)"><svg viewBox="0 0 395.52 232.35438016528929" height="232.35438016528929" width="395.52"><g><svg viewBox="0 0 395.52 232.35438016528929" height="232.35438016528929" width="395.52"><g><svg viewBox="0 0 395.52 232.35438016528929" height="232.35438016528929" width="395.52"><g transform="matrix(1,0,0,1,0,0)"><svg width="395.52" viewBox="3.4499998092651367 -39.19999694824219 145.1999969482422 82.30000305175781" height="232.35438016528929" data-palette-color="#ff4057"><svg></svg><svg></svg><g class="undefined-text-0" data-fill-palette-color="primary" id="text-0"><path xmlns="http://www.w3.org/2000/svg" d="M23.25-17.9c1.967 0.367 3.583 1.35 4.85 2.95 1.267 1.6 1.9 3.433 1.9 5.5v0c0 1.867-0.457 3.507-1.37 4.92-0.92 1.42-2.247 2.53-3.98 3.33-1.733 0.8-3.783 1.2-6.15 1.2v0h-15.05v-34.9h14.4c2.367 0 4.41 0.383 6.13 1.15 1.713 0.767 3.013 1.833 3.9 3.2 0.88 1.367 1.32 2.917 1.32 4.65v0c0 2.033-0.54 3.733-1.62 5.1-1.087 1.367-2.53 2.333-4.33 2.9zM10.45-29.25v8.75h6.4c1.667 0 2.95-0.377 3.85-1.13 0.9-0.747 1.35-1.82 1.35-3.22v0c0-1.4-0.45-2.483-1.35-3.25-0.9-0.767-2.183-1.15-3.85-1.15v0zM17.5-5.7c1.7 0 3.027-0.4 3.98-1.2 0.947-0.8 1.42-1.933 1.42-3.4v0c0-1.5-0.5-2.677-1.5-3.53-1-0.847-2.35-1.27-4.05-1.27v0h-6.9v9.4zM39.15-31c-1.233 0-2.26-0.393-3.08-1.18-0.813-0.78-1.22-1.753-1.22-2.92v0c0-1.167 0.407-2.14 1.22-2.92 0.82-0.787 1.847-1.18 3.08-1.18v0c1.233 0 2.26 0.393 3.08 1.18 0.813 0.78 1.22 1.753 1.22 2.92v0c0 1.167-0.407 2.14-1.22 2.92-0.82 0.787-1.847 1.18-3.08 1.18zM35.6-27.7h7v27.7h-7zM56.5-23.4c0.9-1.467 2.073-2.617 3.52-3.45 1.453-0.833 3.113-1.25 4.98-1.25v0 7.35h-1.85c-2.2 0-3.86 0.517-4.98 1.55-1.113 1.033-1.67 2.833-1.67 5.4v0 13.8h-7v-27.7h7zM67.9-13.95c0-2.8 0.56-5.283 1.68-7.45 1.113-2.167 2.637-3.833 4.57-5 1.933-1.167 4.083-1.75 6.45-1.75v0c1.8 0 3.517 0.39 5.15 1.17 1.633 0.787 2.933 1.83 3.9 3.13v0-13.15h7.1v37h-7.1v-4.1c-0.867 1.367-2.083 2.467-3.65 3.3-1.567 0.833-3.383 1.25-5.45 1.25v0c-2.333 0-4.467-0.6-6.4-1.8-1.933-1.2-3.457-2.893-4.57-5.08-1.12-2.18-1.68-4.687-1.68-7.52zM89.7-13.85c0-1.7-0.333-3.16-1-4.38-0.667-1.213-1.567-2.147-2.7-2.8-1.133-0.647-2.35-0.97-3.65-0.97v0c-1.3 0-2.5 0.317-3.6 0.95-1.1 0.633-1.99 1.557-2.67 2.77-0.687 1.22-1.03 2.663-1.03 4.33v0c0 1.667 0.343 3.123 1.03 4.37 0.68 1.253 1.58 2.213 2.7 2.88 1.113 0.667 2.303 1 3.57 1v0c1.3 0 2.517-0.327 3.65-0.98 1.133-0.647 2.033-1.577 2.7-2.79 0.667-1.22 1-2.68 1-4.38z" fill="#ff4057" fill-rule="nonzero" stroke="none" stroke-width="1" stroke-linecap="butt" stroke-linejoin="miter" stroke-miterlimit="10" stroke-dasharray="" stroke-dashoffset="0" font-family="none" font-weight="none" font-size="none" text-anchor="none" style="mix-blend-mode: normal" data-fill-palette-color="primary" opacity="1"></path><path xmlns="http://www.w3.org/2000/svg" d="M23.25 24.75c1.967 0.367 3.583 1.35 4.85 2.95 1.267 1.6 1.9 3.433 1.9 5.5v0c0 1.867-0.457 3.507-1.37 4.92-0.92 1.42-2.247 2.53-3.98 3.33-1.733 0.8-3.783 1.2-6.15 1.2v0h-15.05v-34.9h14.4c2.367 0 4.41 0.383 6.13 1.15 1.713 0.767 3.013 1.833 3.9 3.2 0.88 1.367 1.32 2.917 1.32 4.65v0c0 2.033-0.54 3.733-1.62 5.1-1.087 1.367-2.53 2.333-4.33 2.9zM10.45 13.4v8.75h6.4c1.667 0 2.95-0.377 3.85-1.13 0.9-0.747 1.35-1.82 1.35-3.22v0c0-1.4-0.45-2.483-1.35-3.25-0.9-0.767-2.183-1.15-3.85-1.15v0zM17.5 36.95c1.7 0 3.027-0.4 3.98-1.2 0.947-0.8 1.42-1.933 1.42-3.4v0c0-1.5-0.5-2.677-1.5-3.53-1-0.847-2.35-1.27-4.05-1.27v0h-6.9v9.4zM47.9 43.1c-2.667 0-5.067-0.593-7.2-1.78-2.133-1.18-3.81-2.853-5.03-5.02-1.213-2.167-1.82-4.667-1.82-7.5v0c0-2.833 0.627-5.333 1.88-7.5 1.247-2.167 2.953-3.843 5.12-5.03 2.167-1.18 4.583-1.77 7.25-1.77v0c2.667 0 5.083 0.59 7.25 1.77 2.167 1.187 3.877 2.863 5.13 5.03 1.247 2.167 1.87 4.667 1.87 7.5v0c0 2.833-0.643 5.333-1.93 7.5-1.28 2.167-3.01 3.84-5.19 5.02-2.187 1.187-4.63 1.78-7.33 1.78zM47.9 37c1.267 0 2.46-0.31 3.58-0.93 1.113-0.613 2.003-1.537 2.67-2.77 0.667-1.233 1-2.733 1-4.5v0c0-2.633-0.69-4.66-2.07-6.08-1.387-1.413-3.08-2.12-5.08-2.12v0c-2 0-3.673 0.707-5.02 2.12-1.353 1.42-2.03 3.447-2.03 6.08v0c0 2.633 0.657 4.657 1.97 6.07 1.32 1.42 2.98 2.13 4.98 2.13zM65.7 28.7c0-2.8 0.56-5.283 1.68-7.45 1.113-2.167 2.627-3.833 4.54-5 1.92-1.167 4.063-1.75 6.43-1.75v0c2.067 0 3.877 0.417 5.43 1.25 1.547 0.833 2.787 1.883 3.72 3.15v0-3.95h7.05v27.7h-7.05v-4.05c-0.9 1.3-2.14 2.373-3.72 3.22-1.587 0.853-3.413 1.28-5.48 1.28v0c-2.333 0-4.46-0.6-6.38-1.8-1.913-1.2-3.427-2.893-4.54-5.08-1.12-2.18-1.68-4.687-1.68-7.52zM87.5 28.8c0-1.7-0.333-3.16-1-4.38-0.667-1.213-1.567-2.147-2.7-2.8-1.133-0.647-2.35-0.97-3.65-0.97v0c-1.3 0-2.5 0.317-3.6 0.95-1.1 0.633-1.99 1.557-2.67 2.77-0.687 1.22-1.03 2.663-1.03 4.33v0c0 1.667 0.343 3.123 1.03 4.37 0.68 1.253 1.58 2.213 2.7 2.88 1.113 0.667 2.303 1 3.57 1v0c1.3 0 2.517-0.327 3.65-0.98 1.133-0.647 2.033-1.577 2.7-2.79 0.667-1.22 1-2.68 1-4.38zM108.4 19.25c0.9-1.467 2.073-2.617 3.52-3.45 1.453-0.833 3.113-1.25 4.98-1.25v0 7.35h-1.85c-2.2 0-3.86 0.517-4.98 1.55-1.113 1.033-1.67 2.833-1.67 5.4v0 13.8h-7v-27.7h7zM119.8 28.7c0-2.8 0.557-5.283 1.67-7.45 1.12-2.167 2.647-3.833 4.58-5 1.933-1.167 4.083-1.75 6.45-1.75v0c1.8 0 3.517 0.39 5.15 1.17 1.633 0.787 2.933 1.83 3.9 3.13v0-13.15h7.1v37h-7.1v-4.1c-0.867 1.367-2.083 2.467-3.65 3.3-1.567 0.833-3.383 1.25-5.45 1.25v0c-2.333 0-4.467-0.6-6.4-1.8-1.933-1.2-3.46-2.893-4.58-5.08-1.113-2.18-1.67-4.687-1.67-7.52zM141.6 28.8c0-1.7-0.333-3.16-1-4.38-0.667-1.213-1.567-2.147-2.7-2.8-1.133-0.647-2.35-0.97-3.65-0.97v0c-1.3 0-2.5 0.317-3.6 0.95-1.1 0.633-1.993 1.557-2.68 2.77-0.68 1.22-1.02 2.663-1.02 4.33v0c0 1.667 0.34 3.123 1.02 4.37 0.687 1.253 1.587 2.213 2.7 2.88 1.12 0.667 2.313 1 3.58 1v0c1.3 0 2.517-0.327 3.65-0.98 1.133-0.647 2.033-1.577 2.7-2.79 0.667-1.22 1-2.68 1-4.38z" fill="#dcdcdc" fill-rule="nonzero" stroke="none" stroke-width="1" stroke-linecap="butt" stroke-linejoin="miter" stroke-miterlimit="10" stroke-dasharray="" stroke-dashoffset="0" font-family="none" font-weight="none" font-size="none" text-anchor="none" style="mix-blend-mode: normal" data-fill-palette-color="secondary" opacity="1"></path></g></svg></g></svg></g></svg></g></svg></g><g transform="matrix(1,0,0,1,0,14.63173008903199)"><svg viewBox="0 0 244.43135999999998 203.0909199872253" height="203.0909199872253" width="244.43135999999998"><g><svg xmlns="http://www.w3.org/2000/svg" xmlns:xlink="http://www.w3.org/1999/xlink" version="1.1" x="0" y="0" viewBox="0.08400000631809235 5.438000202178955 71.06999969482422 59.04999923706055" enable-background="new 0 0 71.467 71.465" xml:space="preserve" width="244.43135999999998" height="203.0909199872253" class="icon-icon-0" data-fill-palette-color="accent" id="icon-0"><path d="M60.812 17.227C60.36 11.34 55.928 6.581 50.192 5.625c-0.688-0.114-1.388-0.187-2.11-0.187-0.729 0-1.442 0.067-2.138 0.187-1.691 0.29-3.268 0.911-4.666 1.793-1.365 0.861-2.561 1.961-3.51 3.26-0.028 0.035-0.061 0.067-0.085 0.104C37.616 10.875 0.084 64.486 0.084 64.486c0.074 0 21.532 0.002 30.384 0.002 16.752 0.002 30.336-13.553 30.388-30.293 0-0.03 0.001-0.061 0.002-0.092v-6.768l10.296-5.044L60.812 17.227zM49.561 19.156c-1.042 0-1.885-0.845-1.885-1.886 0-1.041 0.843-1.883 1.885-1.883 1.041 0 1.886 0.842 1.886 1.883C51.446 18.311 50.602 19.156 49.561 19.156z" fill="#dcdcdc" data-fill-palette-color="accent"></path></svg></g></svg></g></svg></g><defs></defs></svg><rect width="395.52" height="138.10349066867477" fill="none" stroke="none" visibility="hidden"></rect></g></svg></g></svg>