<?xml version="1.0" encoding="utf-8"?>
<svg viewBox="79.669 307.792 386.022 385.941" xmlns="http://www.w3.org/2000/svg">
  <rect width="385.499" height="385.499" rx="500" ry="500" style="fill: rgb(26, 26, 29);" y="307.974" x="79.861"/>
  <g transform="matrix(0.750131, 0, 0, 0.750131, 138.741244, 357.762334)" style="">
    <svg viewBox="0 0 396 138" data-background-color="#282634" preserveAspectRatio="xMidYMid meet" height="348" width="1000" xmlns="http://www.w3.org/2000/svg">
      <g id="tight-bounds" transform="matrix(1,0,0,1,0.23999738160682682,-0.051742773836849665)">
        <svg viewBox="0 0 395.52 138.10349066867477" height="138.10349066867477" width="395.52">
          <g>
            <svg viewBox="0 0 665.4488166664462 232.35438016528929" height="138.10349066867477" width="395.52">
              <g transform="matrix(1,0,0,1,269.92881666644627,0)">
                <svg viewBox="0 0 395.52 232.35438016528929" height="232.35438016528929" width="395.52">
                  <g>
                    <svg viewBox="0 0 395.52 232.35438016528929" height="232.35438016528929" width="395.52">
                      <g>
                        <svg viewBox="0 0 395.52 232.35438016528929" height="232.35438016528929" width="395.52">
                          <g transform="matrix(1,0,0,1,0,0)">
                            <svg width="395.52" viewBox="3.4499998092651367 -39.19999694824219 145.1999969482422 82.30000305175781" height="232.35438016528929" data-palette-color="#ff4057">
                              <svg/>
                              <svg/>
                              <g class="undefined-text-0" data-fill-palette-color="primary" id="text-0"/>
                            </svg>
                          </g>
                        </svg>
                      </g>
                    </svg>
                  </g>
                </svg>
              </g>
              <g transform="matrix(1,0,0,1,0,14.63173008903199)">
                <svg viewBox="0 0 244.43135999999998 203.0909199872253" height="203.0909199872253" width="244.43135999999998">
                  <g>
                    <svg xmlns="http://www.w3.org/2000/svg" version="1.1" x="0" y="0" viewBox="0.08400000631809235 5.438000202178955 71.06999969482422 59.04999923706055" enable-background="new 0 0 71.467 71.465" width="244.43135999999998" height="203.0909199872253" class="icon-icon-0" data-fill-palette-color="accent" id="icon-0">
                      <path d="M60.812 17.227C60.36 11.34 55.928 6.581 50.192 5.625c-0.688-0.114-1.388-0.187-2.11-0.187-0.729 0-1.442 0.067-2.138 0.187-1.691 0.29-3.268 0.911-4.666 1.793-1.365 0.861-2.561 1.961-3.51 3.26-0.028 0.035-0.061 0.067-0.085 0.104C37.616 10.875 0.084 64.486 0.084 64.486c0.074 0 21.532 0.002 30.384 0.002 16.752 0.002 30.336-13.553 30.388-30.293 0-0.03 0.001-0.061 0.002-0.092v-6.768l10.296-5.044L60.812 17.227zM49.561 19.156c-1.042 0-1.885-0.845-1.885-1.886 0-1.041 0.843-1.883 1.885-1.883 1.041 0 1.886 0.842 1.886 1.883C51.446 18.311 50.602 19.156 49.561 19.156z" data-fill-palette-color="accent" style="fill: rgb(195, 7, 63);"/>
                    </svg>
                  </g>
                </svg>
              </g>
            </svg>
          </g>
        </svg>
        <rect width="395.52" height="138.10349066867477" fill="none" stroke="none" visibility="hidden"/>
      </g>
    </svg>
  </g>
</svg>